<mxfile host="app.diagrams.net" modified="2023-12-21T23:29:51.101Z" agent="Mozilla/5.0 (X11; Linux x86_64; rv:109.0) Gecko/20100101 Firefox/115.0" etag="9PnVDpAFPWxElthfI7PT" version="22.1.11" type="device">
  <diagram name="Page-1" id="iUCmSpUEaGoe9Nch0ir7">
    <mxGraphModel dx="699" dy="622" grid="1" gridSize="10" guides="1" tooltips="1" connect="1" arrows="1" fold="1" page="1" pageScale="1" pageWidth="850" pageHeight="1100" math="0" shadow="0">
      <root>
        <mxCell id="0" />
        <mxCell id="1" parent="0" />
        <mxCell id="WO9QbbabyBGRucqF_Vg_-15" value="" style="rounded=1;whiteSpace=wrap;html=1;arcSize=30;fillColor=none;" vertex="1" parent="1">
          <mxGeometry x="100" y="350" width="60" height="70" as="geometry" />
        </mxCell>
        <mxCell id="WO9QbbabyBGRucqF_Vg_-1" value="" style="ellipse;whiteSpace=wrap;html=1;aspect=fixed;fillColor=none;" vertex="1" parent="1">
          <mxGeometry x="130" y="360" width="10" height="10" as="geometry" />
        </mxCell>
        <mxCell id="WO9QbbabyBGRucqF_Vg_-2" value="" style="ellipse;whiteSpace=wrap;html=1;aspect=fixed;fillColor=none;" vertex="1" parent="1">
          <mxGeometry x="120" y="380" width="10" height="10" as="geometry" />
        </mxCell>
        <mxCell id="WO9QbbabyBGRucqF_Vg_-3" value="" style="ellipse;whiteSpace=wrap;html=1;aspect=fixed;fillColor=none;" vertex="1" parent="1">
          <mxGeometry x="140" y="380" width="10" height="10" as="geometry" />
        </mxCell>
        <mxCell id="WO9QbbabyBGRucqF_Vg_-4" value="" style="ellipse;whiteSpace=wrap;html=1;aspect=fixed;fillColor=none;" vertex="1" parent="1">
          <mxGeometry x="110" y="400" width="10" height="10" as="geometry" />
        </mxCell>
        <mxCell id="WO9QbbabyBGRucqF_Vg_-5" value="" style="ellipse;whiteSpace=wrap;html=1;aspect=fixed;fillColor=none;" vertex="1" parent="1">
          <mxGeometry x="130" y="400" width="10" height="10" as="geometry" />
        </mxCell>
        <mxCell id="WO9QbbabyBGRucqF_Vg_-7" value="" style="endArrow=none;html=1;rounded=0;entryX=1;entryY=1;entryDx=0;entryDy=0;exitX=0.5;exitY=0;exitDx=0;exitDy=0;" edge="1" parent="1" source="WO9QbbabyBGRucqF_Vg_-3" target="WO9QbbabyBGRucqF_Vg_-1">
          <mxGeometry width="50" height="50" relative="1" as="geometry">
            <mxPoint x="320" y="410" as="sourcePoint" />
            <mxPoint x="370" y="360" as="targetPoint" />
          </mxGeometry>
        </mxCell>
        <mxCell id="WO9QbbabyBGRucqF_Vg_-9" value="" style="endArrow=none;html=1;rounded=0;entryX=0;entryY=1;entryDx=0;entryDy=0;exitX=0.5;exitY=0;exitDx=0;exitDy=0;" edge="1" parent="1" source="WO9QbbabyBGRucqF_Vg_-2" target="WO9QbbabyBGRucqF_Vg_-1">
          <mxGeometry width="50" height="50" relative="1" as="geometry">
            <mxPoint x="320" y="410" as="sourcePoint" />
            <mxPoint x="370" y="360" as="targetPoint" />
          </mxGeometry>
        </mxCell>
        <mxCell id="WO9QbbabyBGRucqF_Vg_-12" value="" style="endArrow=none;html=1;rounded=0;entryX=1;entryY=1;entryDx=0;entryDy=0;exitX=0.5;exitY=0;exitDx=0;exitDy=0;" edge="1" parent="1" source="WO9QbbabyBGRucqF_Vg_-5" target="WO9QbbabyBGRucqF_Vg_-2">
          <mxGeometry width="50" height="50" relative="1" as="geometry">
            <mxPoint x="320" y="410" as="sourcePoint" />
            <mxPoint x="370" y="360" as="targetPoint" />
          </mxGeometry>
        </mxCell>
        <mxCell id="WO9QbbabyBGRucqF_Vg_-13" value="" style="endArrow=none;html=1;rounded=0;entryX=0;entryY=1;entryDx=0;entryDy=0;exitX=0.5;exitY=0;exitDx=0;exitDy=0;" edge="1" parent="1" source="WO9QbbabyBGRucqF_Vg_-4" target="WO9QbbabyBGRucqF_Vg_-2">
          <mxGeometry width="50" height="50" relative="1" as="geometry">
            <mxPoint x="320" y="410" as="sourcePoint" />
            <mxPoint x="370" y="360" as="targetPoint" />
          </mxGeometry>
        </mxCell>
        <mxCell id="WO9QbbabyBGRucqF_Vg_-17" value="Checker" style="rounded=0;whiteSpace=wrap;html=1;fillColor=none;" vertex="1" parent="1">
          <mxGeometry x="220" y="320" width="160" height="40" as="geometry" />
        </mxCell>
        <mxCell id="WO9QbbabyBGRucqF_Vg_-18" value="Interpreter" style="rounded=0;whiteSpace=wrap;html=1;fillColor=none;" vertex="1" parent="1">
          <mxGeometry x="220" y="410" width="160" height="40" as="geometry" />
        </mxCell>
        <mxCell id="WO9QbbabyBGRucqF_Vg_-19" value="" style="endArrow=classic;html=1;rounded=0;exitX=1;exitY=0.25;exitDx=0;exitDy=0;entryX=0;entryY=0.5;entryDx=0;entryDy=0;" edge="1" parent="1" source="WO9QbbabyBGRucqF_Vg_-15" target="WO9QbbabyBGRucqF_Vg_-17">
          <mxGeometry width="50" height="50" relative="1" as="geometry">
            <mxPoint x="350" y="350" as="sourcePoint" />
            <mxPoint x="400" y="300" as="targetPoint" />
          </mxGeometry>
        </mxCell>
        <mxCell id="WO9QbbabyBGRucqF_Vg_-20" value="" style="endArrow=classic;html=1;rounded=0;exitX=1;exitY=0.75;exitDx=0;exitDy=0;entryX=0;entryY=0.5;entryDx=0;entryDy=0;" edge="1" parent="1" source="WO9QbbabyBGRucqF_Vg_-15" target="WO9QbbabyBGRucqF_Vg_-18">
          <mxGeometry width="50" height="50" relative="1" as="geometry">
            <mxPoint x="350" y="350" as="sourcePoint" />
            <mxPoint x="400" y="300" as="targetPoint" />
          </mxGeometry>
        </mxCell>
        <mxCell id="WO9QbbabyBGRucqF_Vg_-21" value="" style="endArrow=classic;html=1;rounded=0;exitX=1;exitY=0.5;exitDx=0;exitDy=0;fillColor=#e51400;strokeColor=#3333FF;" edge="1" parent="1" source="WO9QbbabyBGRucqF_Vg_-17">
          <mxGeometry width="50" height="50" relative="1" as="geometry">
            <mxPoint x="370" y="340" as="sourcePoint" />
            <mxPoint x="440" y="340" as="targetPoint" />
          </mxGeometry>
        </mxCell>
        <mxCell id="WO9QbbabyBGRucqF_Vg_-23" value="Boolean" style="text;html=1;strokeColor=none;fillColor=none;align=center;verticalAlign=middle;whiteSpace=wrap;rounded=0;fontColor=#3333FF;" vertex="1" parent="1">
          <mxGeometry x="450" y="325" width="60" height="30" as="geometry" />
        </mxCell>
        <mxCell id="WO9QbbabyBGRucqF_Vg_-25" value="+ additional information" style="text;html=1;strokeColor=none;fillColor=none;align=center;verticalAlign=middle;whiteSpace=wrap;rounded=0;fontColor=#3333FF;" vertex="1" parent="1">
          <mxGeometry x="510" y="325" width="150" height="30" as="geometry" />
        </mxCell>
        <mxCell id="WO9QbbabyBGRucqF_Vg_-26" value="Program" style="text;html=1;strokeColor=none;fillColor=none;align=center;verticalAlign=middle;whiteSpace=wrap;rounded=0;" vertex="1" parent="1">
          <mxGeometry x="100" y="320" width="60" height="30" as="geometry" />
        </mxCell>
        <mxCell id="WO9QbbabyBGRucqF_Vg_-28" value="" style="endArrow=classic;html=1;rounded=0;exitX=1;exitY=0.5;exitDx=0;exitDy=0;fillColor=#e51400;strokeColor=#FF9933;" edge="1" parent="1">
          <mxGeometry width="50" height="50" relative="1" as="geometry">
            <mxPoint x="380" y="429.71" as="sourcePoint" />
            <mxPoint x="440" y="429.71" as="targetPoint" />
          </mxGeometry>
        </mxCell>
        <mxCell id="WO9QbbabyBGRucqF_Vg_-29" value="Unit" style="text;html=1;strokeColor=none;fillColor=none;align=center;verticalAlign=middle;whiteSpace=wrap;rounded=0;fontColor=#FF9933;" vertex="1" parent="1">
          <mxGeometry x="440" y="415" width="60" height="30" as="geometry" />
        </mxCell>
      </root>
    </mxGraphModel>
  </diagram>
</mxfile>
